<svg xmlns="http://www.w3.org/2000/svg" viewBox="0 1204.229 3359.403 917.816">

    <g fill="#b60095">
<path d="M784.35 1918.818c-27.504 19.294-58.196 28.946-92.102 28.946-39.182 0-69.44-13.174-90.79-39.49-21.32-26.3-32.003-64.298-32.003-114.016 0-59.64 21.04-112.867 63.153-159.648 43.276-46.78 92.392-70.163 147.345-70.163 29.846 0 50.742 5.27 62.723 15.788 11.973 10.535 17.987 28.084 17.987 52.625 0 25.182-9.07 51.178-27.19 78.07-15.793 23.984-30.99 41.238-45.633 51.762-7.56 5.84-17.653 11.846-30.233 17.98-12.583 6.138-27.352 13-44.285 20.608-29.263 13.453-43.86 20.77-43.86 21.93 0 16.385 8.747 30.133 26.298 41.226 13.447 9.342 27.49 14.018 42.115 14.018 19.87 0 90.672-21.9 118.718-35.367 28.064-14.034 41.508-21.036 40.355-21.036 7.035 0 10.515 5.55 10.515 16.66 0 6.43-72.235 43.27-123.112 80.12m-27.17-317.53c-26.3 0-50.87 18.74-73.68 56.14-21.06 34.51-31.58 65.22-31.58 92.1 0 16.97 5.29 25.43 15.8 25.43 15.21 0 36.53-11.98 64.04-35.96 34.47-30.98 51.73-65.18 51.73-102.61 0-23.38-8.75-35.09-26.29-35.09"></path> <path d="M1078.777 1918.818c-27.507 19.294-58.196 28.946-92.113 28.946-39.17 0-69.43-13.174-90.78-39.49-21.35-26.3-32.002-64.298-32.002-114.016 0-59.64 21.04-112.867 63.145-159.648 43.285-46.78 92.402-70.163 147.347-70.163 29.828 0 50.725 5.27 62.73 15.788 11.973 10.535 17.977 28.084 17.977 52.625 0 25.182-9.06 51.178-27.19 78.07-15.78 23.984-30.98 41.238-45.62 51.762-7.56 5.84-17.66 11.846-30.23 17.98-12.59 6.138-27.34 13-44.31 20.608-29.23 13.453-43.84 20.77-43.84 21.93 0 16.385 8.76 30.133 26.31 41.226 13.45 9.342 27.49 14.018 42.1 14.018 19.88 0 90.32-26.3 118.38-39.75 28.09-14.037 41.54-21.06 40.38-21.06 7.01 0 10.52 5.567 10.52 16.67 0 6.47-71.92 47.66-122.78 84.504m-27.18-317.522c-26.34 0-50.87 18.732-73.68 56.135-21.06 34.51-31.57 65.22-31.57 92.1 0 16.97 5.28 25.44 15.77 25.44 15.23 0 36.55-11.98 64.06-35.96 34.48-30.98 51.73-65.18 51.73-102.61 0-23.37-8.75-35.09-26.28-35.09"></path> <path d="M1577.505 2072.746c-16.36 19.874-21.743 22.118-34.032 22.118-18.112 0-43.852-29.822-77.174-89.465-5.85-11.7-129.14-188.37-134.97-199.49 0 0-29.16-40.68-51.9-51.99-22.73-11.31-15.76 12.28-17.51 36.82-2.96 46.19-5.58 75.71-7.9 88.58-1.75 11.73-3.81 20.76-6.13 27.2-5.28 16.96-11.72 26.62-19.29 28.95-24.01 7-38.04 10.52-42.12 10.52-11.71 0-17.55-9.07-17.55-27.19 0-16.95 3.52-53.22 10.52-108.77l50.87-400.85c5.85-49.72 27.48-74.57 64.9-74.57 18.14 0 26.02 8.2 23.67 24.56l-42.94 295.61c-4.1 28.63-2.35 42.96 5.23 42.96 11.7 0 28.07-11.41 49.14-34.22 33.89-36.83 54.06-57.89 60.52-63.13 26.31-22.82 51.73-34.22 76.29-34.22 19.89 0 29.82 9.35 29.82 28.07 0 16.37-24.58 38.58-73.66 66.65-49.15 28.06-73.7 47.36-73.7 57.88 0 5.84 9.94 20.79 29.81 44.75 22.79 27.49 149.36 213.01 161.73 226.63 57.79 63.57 36.32 82.55 36.32 82.55"></path> <path d="M1733.728 1894.847c-27.486 19.3-96.347 52.918-130.266 52.918-39.17 0-69.437-13.174-90.778-39.49-21.35-26.3-32.01-64.298-32.01-114.016 0-59.64 21.046-112.87 63.145-159.65 43.26-46.78 92.39-70.17 147.35-70.17 29.83 0 50.72 5.27 62.72 15.79 11.97 10.53 18 28.08 18 52.62 0 25.18-9.1 51.18-27.22 78.07-15.79 23.98-31.01 41.24-45.61 51.76-7.58 5.84-17.68 11.84-30.26 17.98-12.59 6.13-27.35 13-44.28 20.6-29.27 13.45-43.86 20.77-43.86 21.93 0 16.38 8.77 30.13 26.3 41.22 13.45 9.34 27.48 14.02 42.09 14.02 19.87 0 82.03-30.69 110.1-44.14 28.06-14.02 41.52-21.06 40.35-21.06 7 0 10.51 5.57 10.51 16.68 0 6.43-25.43 28.04-76.3 64.9m-65.36-293.55c-26.32 0-50.88 18.73-73.66 56.13-21.06 34.5-31.6 65.22-31.6 92.09 0 16.97 5.27 25.43 15.79 25.43 15.21 0 36.53-11.98 64.02-35.96 34.51-30.98 51.78-65.19 51.78-102.61 0-23.38-8.78-35.09-26.34-35.09"></path> <path d="M2067.928 1691.202c-1.206 23.11-2.926 46.938-5.27 71.49-2.33 24.56-4.108 43.56-5.273 56.997-1.18 13.48-1.725 22.24-1.725 26.32 0 4.09.546 8.91 1.725 14.48 1.165 5.54 2.65 10.94 4.407 16.2 1.755 5.27 3.21 10.24 4.39 14.91 1.147 4.7 1.747 8.22 1.747 10.51 0 8.21-7.9 18.43-23.71 30.73-15.19 11.67-27.78 17.52-37.71 17.52-9.95 0-18.58-4.38-25.88-13.15-7.32-8.78-10.95-19.32-10.95-31.6 0-13.42 1.31-30.09 3.94-49.98 2.63-19.87 6.28-43.26 10.96-70.17 9.93-54.96 14.9-89.75 14.9-104.39 0-15.19-6.43-22.79-19.29-22.79-19.89 0-39.78 14.03-59.63 42.08-30.43 42.69-48.59 107.01-54.4 192.97-1.18 12.26-2.06 19.61-2.63 21.92-1.75 4.11-4.99 8.5-9.65 13.16-3.5 2.37-10.84 4.7-21.95 7.03-12.85 2.91-20.17 4.38-21.93 4.38-12.87 0-19.27-6.71-19.27-20.17 2.29-21.07 4.37-41.24 6.12-60.52 1.77-19.29 3.78-37.72 6.14-55.27 4.68-42.69 9.35-79.37 14.03-110.1 4.67-30.69 9.36-55.37 14.02-74.1 5.85-26.88 23.39-40.33 52.63-40.33 14.62 0 22.82 7.01 24.57 21.05 0 1.76-.32 4.53-.88 8.31-.6 3.82-1.17 7.89-1.77 12.29-.58 4.39-1.18 8.63-1.76 12.72-.57 4.09-.87 7-.87 8.76 0 8.2 2.35 12.29 7.02 12.29.57 0 16.37-12.86 47.36-38.6 31-25.73 56.14-38.6 75.43-38.6 10.52 0 19.31 4.99 26.3 14.92 7.03 9.93 10.53 20.17 10.53 30.68 0 22.24-.59 44.91-1.75 68m369.84-288.13c-4.7 32.73-11.72 80.98-21.06 144.69-9.36 63.74-16.4 113.46-21.05 149.13-4.68 35.68-7.03 57.31-7.03 64.91 0 18.12.45 35.21 1.33 51.3.88 16.08 2.47 31.15 4.84 45.17 2.33 14.04 4.07 24.55 5.23 31.58 1.18 7.02 1.77 10.23 1.77 9.64 0 8.77-7.61 19.02-22.79 30.72-18.12 11.69-37.44 17.54-57.89 17.54-5.84 0-10.83-5.57-14.92-16.67-6.428-15.795-9.66-35.64-9.66-59.645 0-13.46-4.1-20.16-12.27-20.16-5.265 0-12.435 5.54-21.49 16.66-9.09 11.11-17.68 22.234-25.88 33.32-22.22 26.33-46.21 39.5-71.93 39.5-25.14 0-44.89-9.51-59.218-28.53-14.35-19-21.47-46.05-21.47-81.13 0-68.41 21.91-128.94 65.762-181.566 43.88-53.22 93.87-79.82 150-79.82 4.66 0 9.932.855 15.783 2.63 5.87 1.75 9.65 2.63 11.416 2.63 4.67 0 8.46-7.01 11.37-21.076l30.73-186.807c.53-3.51 2.9-7.01 6.99-10.53 4.09-3.486 9.2-6.85 15.354-10.07 6.16-3.234 12.7-5.7 19.74-7.46 7.02-1.75 14.04-2.63 21.05-2.63 8.21 0 12.31 4.68 12.31 14.02 0 2.36-2.36 19.9-7.04 52.65m-141.22 207c-29.24 0-57.91 17.52-85.956 52.625-31.57 38.58-47.36 82.45-47.36 131.56 0 15.23 3.78 28.37 11.4 39.48 7.59 11.09 16.07 16.65 25.44 16.65 18.11 0 41.5-16.93 70.17-50.87 36.26-44.43 54.38-96.49 54.38-156.15 0-22.19-9.34-33.31-28.07-33.31m703.38 29.81c-3.792 6.45-8.9 11.86-15.34 16.23-6.44 4.39-13.76 7.9-21.95 10.52-8.16 2.66-16.64 3.96-25.424 3.96-15.21 0-22.78-6.42-22.78-19.3 0-1.75 2.04-6.42 6.13-14.04 4.07-7.59 6.143-12.864 6.143-15.8 0-12.85-11.71-19.274-35.08-19.274-13.446 0-25.896 1.76-37.29 5.25-11.39 3.51-21.35 8.5-29.83 14.91-8.457 6.46-15.21 14.05-20.17 22.82-4.97 8.77-7.466 18.41-7.466 28.95 0 26.89 11.12 40.34 33.35 40.34 3.497 0 16.36-1.76 38.58-5.27 21.63-3.5 38.01-5.24 49.14-5.24 54.93 0 82.44 23.99 82.44 71.93 0 44.44-21.37 84.48-64.04 120.15-39.773 32.75-79.82 49.13-120.15 49.13-38.62 0-68.72-6.44-90.36-19.296s-32.46-30.71-32.46-53.52c0-12.28 7.32-22.8 21.94-31.58 11.09-7 22.5-10.524 34.2-10.524 14.03 0 21.05 4.09 21.05 12.28 0 7.02-.6 13.74-1.76 20.17-1.17 6.43-1.75 10.23-1.75 11.4 0 11.11 5.27 20.6 15.785 28.49 10.51 7.9 22.81 11.86 36.84 11.86 22.82 0 46.786-9.35 71.94-28.09 24.56-19.27 36.84-37.99 36.84-56.12 0-19.3-6.46-30.982-19.3-35.1-5.25-2.31-22.24-3.49-50.88-3.49-3.51 0-7.9.43-13.15 1.3-5.28.88-11.72 1.9-19.32 3.07-6.995 1.19-13.14 2.21-18.4 3.08-5.26.86-9.36 1.3-12.28 1.3-52.623 0-78.95-23.954-78.95-71.93 0-44.43 18.98-82.44 56.997-114.01 38.61-31.57 85.1-47.38 139.48-47.38 61.97 0 92.98 17.56 92.98 52.63 0 7.02-1.91 13.75-5.72 20.18m264.95 21.06c-49.14 28.05-73.68 47.36-73.68 57.88 0 5.844 9.95 20.79 29.818 44.75 22.83 27.49 42.7 44.724 59.656 51.75 33.91 14.63 50.87 29.813 50.87 45.6 0 14.64-8.49 32.17-25.45 52.64-16.37 19.872-30.69 29.83-42.96 29.83-18.15 0-43.86-29.83-77.2-89.48-5.85-11.69-11.7-23.1-17.55-34.22-5.84-11.094-11.7-22.49-17.54-34.2-11.69-21.05-21.63-31.57-29.84-31.57-9.92 0-15.75 12.28-17.52 36.83-2.94 46.193-5.56 75.71-7.89 88.59-1.76 11.73-3.83 20.77-6.143 27.2-5.265 16.96-11.72 26.62-19.284 28.95-23.996 7.01-38.02 10.52-42.11 10.52-11.72 0-17.56-9.07-17.56-27.19 0-16.95 3.525-53.216 10.53-108.764l50.892-400.85c5.82-49.72 27.47-74.576 64.878-74.576 18.143 0 26.01 8.21 23.693 24.58l-42.98 295.608c-4.08 28.63-2.32 42.97 5.25 42.97 11.7 0 28.08-11.41 49.14-34.23 33.91-36.84 54.07-57.88 60.52-63.13 26.32-22.81 51.74-34.22 76.31-34.22 19.87 0 29.81 9.36 29.81 28.08 0 16.37-24.54 38.587-73.66 66.66m-3145.85 315.4c-54.2-12.63-94.01-105.43-87.22-204.36 9.12-132.54 24.62-239.885 44.84-310.41 17.02-59.335 32.683-75.72 36.83-76.93 1.56-.33 6.42.1 9.64.1h.99c5.56 0 11.36.09 14.64.61 38.32 5.8 39.67 12.29 42.66 26.99.56 2.83.41 10.756-3.58 32.877l-.53 2.99c-7.39 42.45-16.43 88.994-24.41 130.1l-.06.26c-14.46 74.524-28.1 144.9-34.89 199.54l-4.29 34.482c-.42 3.432 1.37 6.753 4.47 8.29 1.15.55 2.38.85 3.6.85 2.09 0 4.15-.81 5.7-2.33l24.79-24.35c93.58-91.98 199.72-238.74 196.47-354.42.883.077 1.243.26 1.243.26 1.96 1.44 4.504 3.13 6.95 4.74 20.26 13.4 54.2 35.81 50.315 158.83-.694 21.58-7.886 87.77-7.96 88.43l-3.97 36.56c-.38 3.49 1.52 6.83 4.73 8.28 1.08.49 2.22.73 3.37.73 2.22 0 4.39-.91 5.97-2.62l24.92-27.01c50.39-54.59 171.45-206.6 207.25-438.32 4.2-27.21 8.09-37.02 16.16-39.78 63.03 19.52 73.3 57.785 73.86 60.285-8.82 129.61-90.55 299.464-264.95 550.623-.07.08-.11.16-.16.25-12.35 19.22-27.74 43.15-41.79 62.69-20.61 28.64-28.09 33.34-29.95 34.11-39.63-3.28-64.14-23.816-64.14-114.045l-.96-96.38c-.03-3.438-2.21-6.468-5.45-7.59-.888-.308-1.786-.46-2.687-.46-2.41 0-4.74 1.06-6.32 3.002l-21.17 26.08c-49.64 61.11-84.42 109.012-111.91 147.83l-3.86 5.46c-25.27 35.723-43.855 62-59.19 73.8"></path> <path d="M2667.99 1900.164c-30.34 14.48-96.972 47.602-130.88 47.602-39.173 0-69.433-13.175-90.778-39.49-21.335-26.3-32.01-64.3-32.01-114.016 0-59.64 21.06-112.867 63.15-159.648 43.256-46.78 92.407-70.163 147.355-70.163 29.83 0 50.725 5.27 62.732 15.78 11.96 10.53 17.99 28.08 17.99 52.62 0 25.18-9.1 51.18-27.21 78.07-15.79 23.98-31.01 41.24-45.63 51.76-7.58 5.84-17.67 11.84-30.25 17.98-12.6 6.13-27.35 13-44.29 20.6-29.27 13.45-43.86 20.77-43.86 21.93 0 16.38 8.77 30.13 26.3 41.23 13.47 9.34 27.48 14.02 42.1 14.02 19.88 0 86.81-9.44 114.89-22.9 28.05-14.03 30.38-7.03 30.83-17.57-.29 6.99 10.51 23.14 10.51 34.25 0 6.44-18.51 2.88-70.97 27.91m-65.96-298.87c-26.32 0-50.89 18.73-73.67 56.13-21.05 34.5-31.6 65.22-31.6 92.09 0 16.97 5.26 25.43 15.79 25.43 15.2 0 36.53-11.99 64.02-35.96 34.52-30.98 51.77-65.19 51.77-102.62 0-23.38-8.77-35.09-26.32-35.09"></path>
</g>
</svg>
